<?xml version="1.0" encoding="UTF-8"?> <svg xmlns="http://www.w3.org/2000/svg" viewBox="0 0 2560.9 1066.43"><defs><style>.cls-1,.cls-8{fill:#fff;}.cls-2,.cls-6{fill:#323d4c;}.cls-3,.cls-5{fill:#e6007e;}.cls-4{fill:#eff3f3;}.cls-5{stroke:#e6007e;}.cls-5,.cls-6{stroke-miterlimit:10;stroke-width:5.72px;}.cls-6{stroke:#323d4c;}.cls-7{fill:#e40a7d;}.cls-8{font-size:9.84px;font-family:Montserrat-ExtraBold, Montserrat;font-weight:800;letter-spacing:0.01em;}</style></defs><g id="Layer_2" data-name="Layer 2"><g id="Layer_1-2" data-name="Layer 1"><rect class="cls-1" width="2560.9" height="1066.43"></rect><rect class="cls-2" x="597.44" y="10.78" width="975.61" height="523.35"></rect><rect class="cls-3" x="597.44" y="532.2" width="975.61" height="523.35"></rect><rect class="cls-2" x="1569.97" y="10.78" width="975.61" height="523.35"></rect><rect class="cls-3" x="1569.97" y="532.2" width="975.61" height="523.35"></rect><rect class="cls-3" x="118.59" y="592.41" width="110.33" height="110.33" rx="27.14"></rect><path class="cls-2" d="M149.25,619.52a7.73,7.73,0,0,0-7.72,7.72v29.15a7.72,7.72,0,1,0,15.43,0V627.24A7.73,7.73,0,0,0,149.25,619.52Z"></path><path class="cls-2" d="M172.69,609.64a7.72,7.72,0,1,0,7.72,7.71A7.72,7.72,0,0,0,172.69,609.64Z"></path><path class="cls-2" d="M193.82,624.1a7.72,7.72,0,1,0,7.71,7.71A7.72,7.72,0,0,0,193.82,624.1Z"></path><path class="cls-1" d="M172.81,631.11a7.72,7.72,0,0,0-7.72,7.71V668a7.72,7.72,0,0,0,15.43,0V638.82A7.72,7.72,0,0,0,172.81,631.11Z"></path><path class="cls-1" d="M193.82,669.62a7.72,7.72,0,1,0,7.71,7.72A7.73,7.73,0,0,0,193.82,669.62Z"></path><rect class="cls-3" x="327.09" y="592.41" width="110.33" height="110.33" rx="27.14"></rect><path class="cls-4" d="M357.75,619.52a7.73,7.73,0,0,0-7.71,7.72v29.15a7.72,7.72,0,1,0,15.43,0V627.24A7.73,7.73,0,0,0,357.75,619.52Z"></path><path class="cls-4" d="M381.2,609.64a7.72,7.72,0,1,0,7.71,7.71A7.72,7.72,0,0,0,381.2,609.64Z"></path><path class="cls-4" d="M402.33,624.1a7.72,7.72,0,1,0,7.71,7.71A7.72,7.72,0,0,0,402.33,624.1Z"></path><path class="cls-2" d="M381.31,631.11a7.72,7.72,0,0,0-7.71,7.71V668A7.72,7.72,0,0,0,389,668V638.82A7.72,7.72,0,0,0,381.31,631.11Z"></path><path class="cls-2" d="M402.33,669.62a7.72,7.72,0,1,0,7.71,7.72A7.73,7.73,0,0,0,402.33,669.62Z"></path><rect class="cls-5" x="118.59" y="741.29" width="110.33" height="110.33" rx="55.16"></rect><path class="cls-2" d="M149.25,768.41a7.72,7.72,0,0,0-7.72,7.71v29.16a7.72,7.72,0,0,0,15.43,0V776.12A7.72,7.72,0,0,0,149.25,768.41Z"></path><path class="cls-2" d="M172.69,758.52a7.72,7.72,0,1,0,7.72,7.71A7.72,7.72,0,0,0,172.69,758.52Z"></path><path class="cls-2" d="M193.82,773a7.72,7.72,0,1,0,7.71,7.71A7.72,7.72,0,0,0,193.82,773Z"></path><path class="cls-1" d="M172.81,780a7.72,7.72,0,0,0-7.72,7.71v29.16a7.72,7.72,0,0,0,15.43,0V787.7A7.72,7.72,0,0,0,172.81,780Z"></path><path class="cls-1" d="M193.82,818.51a7.71,7.71,0,1,0,7.71,7.71A7.72,7.72,0,0,0,193.82,818.51Z"></path><rect class="cls-5" x="327.09" y="741.29" width="110.33" height="110.33" rx="55.16"></rect><path class="cls-4" d="M357.75,768.41a7.72,7.72,0,0,0-7.71,7.71v29.16a7.72,7.72,0,0,0,15.43,0V776.12A7.72,7.72,0,0,0,357.75,768.41Z"></path><path class="cls-4" d="M381.2,758.52a7.72,7.72,0,1,0,7.71,7.71A7.72,7.72,0,0,0,381.2,758.52Z"></path><path class="cls-4" d="M402.33,773a7.72,7.72,0,1,0,7.71,7.71A7.72,7.72,0,0,0,402.33,773Z"></path><path class="cls-2" d="M381.31,780a7.72,7.72,0,0,0-7.71,7.71v29.16a7.72,7.72,0,0,0,15.43,0V787.7A7.72,7.72,0,0,0,381.31,780Z"></path><path class="cls-2" d="M402.33,818.51a7.71,7.71,0,1,0,7.71,7.71A7.72,7.72,0,0,0,402.33,818.51Z"></path><rect class="cls-2" x="118.59" y="83.08" width="110.33" height="110.33" rx="27.14"></rect><path class="cls-3" d="M149.25,110.19a7.73,7.73,0,0,0-7.72,7.72v29.15a7.72,7.72,0,1,0,15.43,0V117.91A7.73,7.73,0,0,0,149.25,110.19Z"></path><path class="cls-3" d="M172.69,100.31a7.72,7.72,0,1,0,7.72,7.71A7.72,7.72,0,0,0,172.69,100.31Z"></path><path class="cls-3" d="M193.82,114.77a7.72,7.72,0,1,0,7.71,7.71A7.72,7.72,0,0,0,193.82,114.77Z"></path><path class="cls-1" d="M172.81,121.78a7.72,7.72,0,0,0-7.72,7.71v29.16a7.72,7.72,0,0,0,15.43,0V129.49A7.72,7.72,0,0,0,172.81,121.78Z"></path><path class="cls-1" d="M193.82,160.29a7.72,7.72,0,1,0,7.71,7.72A7.73,7.73,0,0,0,193.82,160.29Z"></path><rect class="cls-2" x="327.09" y="83.08" width="110.33" height="110.33" rx="27.14"></rect><path class="cls-4" d="M357.75,110.19a7.73,7.73,0,0,0-7.71,7.72v29.15a7.72,7.72,0,1,0,15.43,0V117.91A7.73,7.73,0,0,0,357.75,110.19Z"></path><path class="cls-4" d="M381.2,100.31a7.72,7.72,0,1,0,7.71,7.71A7.72,7.72,0,0,0,381.2,100.31Z"></path><path class="cls-4" d="M402.33,114.77a7.72,7.72,0,1,0,7.71,7.71A7.72,7.72,0,0,0,402.33,114.77Z"></path><path class="cls-3" d="M381.31,121.78a7.72,7.72,0,0,0-7.71,7.71v29.16a7.72,7.72,0,0,0,15.43,0V129.49A7.72,7.72,0,0,0,381.31,121.78Z"></path><path class="cls-3" d="M402.33,160.29A7.72,7.72,0,1,0,410,168,7.73,7.73,0,0,0,402.33,160.29Z"></path><rect class="cls-6" x="118.59" y="225.59" width="110.33" height="110.33" rx="55.16"></rect><path class="cls-3" d="M149.25,252.71a7.72,7.72,0,0,0-7.72,7.71v29.16a7.72,7.72,0,0,0,15.43,0V260.42A7.72,7.72,0,0,0,149.25,252.71Z"></path><path class="cls-3" d="M172.69,242.82a7.72,7.72,0,1,0,7.72,7.71A7.72,7.72,0,0,0,172.69,242.82Z"></path><path class="cls-3" d="M193.82,257.28a7.72,7.72,0,1,0,7.71,7.71A7.72,7.72,0,0,0,193.82,257.28Z"></path><path class="cls-1" d="M172.81,264.29a7.72,7.72,0,0,0-7.72,7.71v29.16a7.72,7.72,0,0,0,15.43,0V272A7.72,7.72,0,0,0,172.81,264.29Z"></path><path class="cls-1" d="M193.82,302.81a7.71,7.71,0,1,0,7.71,7.71A7.72,7.72,0,0,0,193.82,302.81Z"></path><rect class="cls-6" x="327.09" y="225.59" width="110.33" height="110.33" rx="55.16"></rect><path class="cls-4" d="M357.75,252.71a7.72,7.72,0,0,0-7.71,7.71v29.16a7.72,7.72,0,0,0,15.43,0V260.42A7.72,7.72,0,0,0,357.75,252.71Z"></path><path class="cls-4" d="M381.2,242.82a7.72,7.72,0,1,0,7.71,7.71A7.72,7.72,0,0,0,381.2,242.82Z"></path><path class="cls-4" d="M402.33,257.28A7.72,7.72,0,1,0,410,265,7.72,7.72,0,0,0,402.33,257.28Z"></path><path class="cls-3" d="M381.31,264.29A7.72,7.72,0,0,0,373.6,272v29.16a7.72,7.72,0,0,0,15.43,0V272A7.72,7.72,0,0,0,381.31,264.29Z"></path><path class="cls-3" d="M402.33,302.81a7.71,7.71,0,1,0,7.71,7.71A7.72,7.72,0,0,0,402.33,302.81Z"></path><rect class="cls-5" x="118.59" y="874.06" width="110.33" height="110.33" rx="55.16"></rect><path class="cls-1" d="M149.25,901.18a7.72,7.72,0,0,0-7.72,7.71v29.16a7.72,7.72,0,0,0,15.43,0V908.89A7.72,7.72,0,0,0,149.25,901.18Z"></path><path class="cls-1" d="M172.69,891.29a7.72,7.72,0,1,0,7.72,7.72A7.72,7.72,0,0,0,172.69,891.29Z"></path><path class="cls-1" d="M193.82,905.75a7.72,7.72,0,1,0,7.71,7.72A7.72,7.72,0,0,0,193.82,905.75Z"></path><path class="cls-1" d="M172.81,912.76a7.72,7.72,0,0,0-7.72,7.72v29.15a7.72,7.72,0,1,0,15.43,0V920.48A7.72,7.72,0,0,0,172.81,912.76Z"></path><path class="cls-1" d="M193.82,951.28a7.72,7.72,0,1,0,7.71,7.71A7.72,7.72,0,0,0,193.82,951.28Z"></path><rect class="cls-5" x="327.09" y="874.06" width="110.33" height="110.33" rx="55.16"></rect><path class="cls-2" d="M357.75,901.18a7.72,7.72,0,0,0-7.71,7.71v29.16a7.72,7.72,0,0,0,15.43,0V908.89A7.72,7.72,0,0,0,357.75,901.18Z"></path><path class="cls-2" d="M381.2,891.29a7.72,7.72,0,1,0,7.71,7.72A7.72,7.72,0,0,0,381.2,891.29Z"></path><path class="cls-2" d="M402.33,905.75a7.72,7.72,0,1,0,7.71,7.72A7.72,7.72,0,0,0,402.33,905.75Z"></path><path class="cls-2" d="M381.31,912.76a7.72,7.72,0,0,0-7.71,7.72v29.15a7.72,7.72,0,1,0,15.43,0V920.48A7.72,7.72,0,0,0,381.31,912.76Z"></path><path class="cls-2" d="M402.33,951.28A7.72,7.72,0,1,0,410,959,7.72,7.72,0,0,0,402.33,951.28Z"></path><rect class="cls-6" x="118.59" y="358.36" width="110.33" height="110.33" rx="55.16"></rect><path class="cls-1" d="M149.25,385.48a7.72,7.72,0,0,0-7.72,7.71v29.16a7.72,7.72,0,0,0,15.43,0V393.19A7.72,7.72,0,0,0,149.25,385.48Z"></path><path class="cls-1" d="M172.69,375.59a7.72,7.72,0,1,0,7.72,7.72A7.72,7.72,0,0,0,172.69,375.59Z"></path><path class="cls-1" d="M193.82,390.05a7.72,7.72,0,1,0,7.71,7.72A7.72,7.72,0,0,0,193.82,390.05Z"></path><path class="cls-1" d="M172.81,397.06a7.72,7.72,0,0,0-7.72,7.72v29.15a7.72,7.72,0,1,0,15.43,0V404.78A7.72,7.72,0,0,0,172.81,397.06Z"></path><path class="cls-1" d="M193.82,435.58a7.72,7.72,0,1,0,7.71,7.71A7.72,7.72,0,0,0,193.82,435.58Z"></path><rect class="cls-6" x="327.09" y="358.36" width="110.33" height="110.33" rx="55.16"></rect><path class="cls-7" d="M357.75,385.48a7.72,7.72,0,0,0-7.71,7.71v29.16a7.72,7.72,0,0,0,15.43,0V393.19A7.72,7.72,0,0,0,357.75,385.48Z"></path><path class="cls-7" d="M381.2,375.59a7.72,7.72,0,1,0,7.71,7.72A7.72,7.72,0,0,0,381.2,375.59Z"></path><path class="cls-7" d="M402.33,390.05a7.72,7.72,0,1,0,7.71,7.72A7.72,7.72,0,0,0,402.33,390.05Z"></path><path class="cls-7" d="M381.31,397.06a7.72,7.72,0,0,0-7.71,7.72v29.15a7.72,7.72,0,1,0,15.43,0V404.78A7.72,7.72,0,0,0,381.31,397.06Z"></path><path class="cls-7" d="M402.33,435.58a7.72,7.72,0,1,0,7.71,7.71A7.72,7.72,0,0,0,402.33,435.58Z"></path><path class="cls-3" d="M744.09,241a9.46,9.46,0,0,0-9.45,9.45V286.2a9.45,9.45,0,0,0,18.89,0V250.49A9.45,9.45,0,0,0,744.09,241Z"></path><path class="cls-3" d="M772.8,228.93a9.45,9.45,0,1,0,9.45,9.45A9.46,9.46,0,0,0,772.8,228.93Z"></path><path class="cls-3" d="M798.68,246.64a9.45,9.45,0,1,0,9.45,9.45A9.46,9.46,0,0,0,798.68,246.64Z"></path><path class="cls-1" d="M772.94,255.22a9.46,9.46,0,0,0-9.45,9.45v35.71a9.45,9.45,0,1,0,18.9,0V264.67A9.46,9.46,0,0,0,772.94,255.22Z"></path><path class="cls-1" d="M798.68,302.4a9.45,9.45,0,1,0,9.45,9.45A9.46,9.46,0,0,0,798.68,302.4Z"></path><text class="cls-8" transform="translate(1000.6 266.67)">TM</text><path class="cls-3" d="M843.05,267.13a5.12,5.12,0,0,0-3.38-1.14,14.2,14.2,0,0,0-3.35.4,12,12,0,0,0-3.14,1.24,11.5,11.5,0,0,0-2.64,2.07,10.16,10.16,0,0,0-1.44,2v-1a4,4,0,0,0-1.14-2.91,4.12,4.12,0,0,0-5.75,0,4,4,0,0,0-1.14,2.91v27.62a4,4,0,0,0,1.14,2.91,4.12,4.12,0,0,0,5.75,0,4,4,0,0,0,1.14-2.91V282.51a12.24,12.24,0,0,1,.64-4.18,9.4,9.4,0,0,1,1.67-3,6.78,6.78,0,0,1,2.27-1.77,5.85,5.85,0,0,1,4.82-.1,5.56,5.56,0,0,0,2.3.47,3.72,3.72,0,0,0,2.48-1,4,4,0,0,0,1.14-3.18A3.4,3.4,0,0,0,843.05,267.13Z"></path><path class="cls-3" d="M876.46,296l-9.63-12,9.22-11.25a3.25,3.25,0,0,0,.74-1.27,4.71,4.71,0,0,0,.2-1.33,3.46,3.46,0,0,0-1.1-2.51,3.68,3.68,0,0,0-2.71-1.11,3.92,3.92,0,0,0-3.21,1.81l-7.62,10.1-8.24-10.23a4,4,0,0,0-3.27-1.68,4.1,4.1,0,0,0-2.85,1.14,3.76,3.76,0,0,0-1.23,2.88,3.69,3.69,0,0,0,.87,2.4l9.63,12L848,296.29a3.9,3.9,0,0,0-1,2.54,3.11,3.11,0,0,0,1.3,2.51,4.24,4.24,0,0,0,2.64,1,3.85,3.85,0,0,0,3.21-1.68l7.86-9.93,8,9.93a3.92,3.92,0,0,0,6.08.54,3.82,3.82,0,0,0,1.28-2.88A3.74,3.74,0,0,0,876.46,296Z"></path><path class="cls-1" d="M934.3,286.19a3.43,3.43,0,0,0,1.27-2.61,17.24,17.24,0,0,0-1.37-6.82,18.53,18.53,0,0,0-3.71-5.65,17.68,17.68,0,0,0-5.39-3.85,15.16,15.16,0,0,0-6.45-1.4,16.45,16.45,0,0,0-8.36,2.27,17.19,17.19,0,0,0-6.39,6.52,20.25,20.25,0,0,0-2.44,10.27,18.8,18.8,0,0,0,2.24,9.23,16.32,16.32,0,0,0,6.42,6.45A19.57,19.57,0,0,0,920,303a19.32,19.32,0,0,0,6.48-1.11,15.43,15.43,0,0,0,4.89-2.57,4.19,4.19,0,0,0,1.87-3.28,3.36,3.36,0,0,0-3.41-3.34,5.14,5.14,0,0,0-2.28.6c-.49.27-1,.59-1.63,1a9.09,9.09,0,0,1-2.38,1,15.47,15.47,0,0,1-3.95.4,10.28,10.28,0,0,1-10.15-8.43h22.06A4.24,4.24,0,0,0,934.3,286.19Zm-22.41-10.64a7.29,7.29,0,0,1,3-1.8,12.59,12.59,0,0,1,3.75-.54,8.67,8.67,0,0,1,3.91.91,8.9,8.9,0,0,1,3.08,2.44A6.11,6.11,0,0,1,927,280v.46H909.49a12.82,12.82,0,0,1,.39-1.54A8.92,8.92,0,0,1,911.89,275.55Z"></path><path class="cls-1" d="M940.19,296.76a3.76,3.76,0,0,1-.61-2.41,3.25,3.25,0,0,1,1.74-2.54,3.6,3.6,0,0,1,2.28-.57,3.81,3.81,0,0,1,2.34,1.24,15.9,15.9,0,0,0,4.08,3,12,12,0,0,0,5.35,1.07,20.62,20.62,0,0,0,2.21-.3,4.31,4.31,0,0,0,2.1-1.07,3.34,3.34,0,0,0,.91-2.58,2.94,2.94,0,0,0-1-2.34,8.45,8.45,0,0,0-2.64-1.47c-1.09-.4-2.31-.78-3.64-1.14s-2.8-.85-4.25-1.34a17.61,17.61,0,0,1-4-1.9,9,9,0,0,1-2.94-3.11,9.54,9.54,0,0,1-1.14-4.89,8.79,8.79,0,0,1,1.87-5.68,12.21,12.21,0,0,1,4.85-3.61,15.7,15.7,0,0,1,6.25-1.27,19.77,19.77,0,0,1,4.35.5,17,17,0,0,1,4.35,1.6,10.92,10.92,0,0,1,3.48,2.91,4.76,4.76,0,0,1,.87,2.41,2.88,2.88,0,0,1-1.27,2.54,3.19,3.19,0,0,1-2.34.7,3.46,3.46,0,0,1-2.21-.9,7.92,7.92,0,0,0-3-2.34,10.52,10.52,0,0,0-4.39-.87,11.63,11.63,0,0,0-2.17.23,4.28,4.28,0,0,0-2,1,3.09,3.09,0,0,0-.87,2.44,3.15,3.15,0,0,0,1,2.44,7.71,7.71,0,0,0,2.71,1.47c1.14.38,2.35.75,3.65,1.1s2.7.79,4.08,1.28a15.9,15.9,0,0,1,3.81,1.94,9.14,9.14,0,0,1,2.81,3.11,9.84,9.84,0,0,1,1.07,4.85,8.8,8.8,0,0,1-2,5.82,12.66,12.66,0,0,1-5,3.64,16,16,0,0,1-6.16,1.24,24,24,0,0,1-7.89-1.37A13.64,13.64,0,0,1,940.19,296.76Z"></path><path class="cls-1" d="M972.43,296.76a3.76,3.76,0,0,1-.61-2.41,3.25,3.25,0,0,1,1.74-2.54,3.6,3.6,0,0,1,2.28-.57,3.81,3.81,0,0,1,2.34,1.24,15.9,15.9,0,0,0,4.08,3,12,12,0,0,0,5.35,1.07,20.62,20.62,0,0,0,2.21-.3,4.31,4.31,0,0,0,2.1-1.07,3.34,3.34,0,0,0,.91-2.58,2.94,2.94,0,0,0-1-2.34,8.33,8.33,0,0,0-2.64-1.47c-1.09-.4-2.31-.78-3.64-1.14s-2.8-.85-4.25-1.34a17.61,17.61,0,0,1-4-1.9,9.14,9.14,0,0,1-2.94-3.11,9.54,9.54,0,0,1-1.14-4.89,8.79,8.79,0,0,1,1.87-5.68,12.21,12.21,0,0,1,4.85-3.61,15.71,15.71,0,0,1,6.26-1.27,19.75,19.75,0,0,1,4.34.5,17,17,0,0,1,4.35,1.6,10.92,10.92,0,0,1,3.48,2.91,4.76,4.76,0,0,1,.87,2.41,2.88,2.88,0,0,1-1.27,2.54,3.19,3.19,0,0,1-2.34.7,3.46,3.46,0,0,1-2.21-.9,7.92,7.92,0,0,0-3-2.34,10.49,10.49,0,0,0-4.39-.87,11.63,11.63,0,0,0-2.17.23,4.28,4.28,0,0,0-2,1,3.09,3.09,0,0,0-.87,2.44,3.15,3.15,0,0,0,1,2.44,7.71,7.71,0,0,0,2.71,1.47c1.14.38,2.35.75,3.65,1.1s2.7.79,4.08,1.28a15.9,15.9,0,0,1,3.81,1.94,9.14,9.14,0,0,1,2.81,3.11,9.84,9.84,0,0,1,1.07,4.85,8.8,8.8,0,0,1-2,5.82,12.66,12.66,0,0,1-5,3.64,16,16,0,0,1-6.16,1.24,24,24,0,0,1-7.89-1.37A13.64,13.64,0,0,1,972.43,296.76Z"></path><path class="cls-1" d="M883.27,257.63a4,4,0,0,1,1.13-2.91,4.12,4.12,0,0,1,5.75,0,4,4,0,0,1,1.14,2.91v30a22.93,22.93,0,0,0,.17,2.81,5.09,5.09,0,0,0,.84,2.31,4.31,4.31,0,0,0,2.27,1.5,6.59,6.59,0,0,1,2.44,1.34,3,3,0,0,1,1,2.34v.74a3.74,3.74,0,0,1-1,2.64,3.56,3.56,0,0,1-2.71,1.1,10.34,10.34,0,0,1-5.55-1.53,11.07,11.07,0,0,1-3.94-4.32,13.9,13.9,0,0,1-1.47-6.59Z"></path><path class="cls-1" d="M1233.92,241a9.46,9.46,0,0,0-9.45,9.45V286.2a9.45,9.45,0,0,0,18.9,0V250.49A9.46,9.46,0,0,0,1233.92,241Z"></path><path class="cls-1" d="M1262.64,228.93a9.45,9.45,0,1,0,9.45,9.45A9.46,9.46,0,0,0,1262.64,228.93Z"></path><path class="cls-1" d="M1288.52,246.64a9.45,9.45,0,1,0,9.44,9.45A9.46,9.46,0,0,0,1288.52,246.64Z"></path><path class="cls-3" d="M1262.78,255.22a9.46,9.46,0,0,0-9.45,9.45v35.71a9.45,9.45,0,1,0,18.89,0V264.67A9.45,9.45,0,0,0,1262.78,255.22Z"></path><path class="cls-3" d="M1288.52,302.4a9.45,9.45,0,1,0,9.44,9.45A9.46,9.46,0,0,0,1288.52,302.4Z"></path><path class="cls-3" d="M1332.88,267.13a5.12,5.12,0,0,0-3.38-1.14,14.12,14.12,0,0,0-3.34.4,12,12,0,0,0-3.15,1.24,11.5,11.5,0,0,0-2.64,2.07,11.05,11.05,0,0,0-1.44,2v-1a4,4,0,0,0-1.13-2.91,4.13,4.13,0,0,0-5.76,0,4,4,0,0,0-1.13,2.91v27.62a4,4,0,0,0,1.13,2.91,4.13,4.13,0,0,0,5.76,0,4,4,0,0,0,1.13-2.91V282.51a12.24,12.24,0,0,1,.64-4.18,9.4,9.4,0,0,1,1.67-3,6.78,6.78,0,0,1,2.27-1.77A5.83,5.83,0,0,1,1326,273a5.73,5.73,0,0,1,2.37.47,5.58,5.58,0,0,0,2.31.47,3.72,3.72,0,0,0,2.47-1,4,4,0,0,0,1.14-3.18A3.4,3.4,0,0,0,1332.88,267.13Z"></path><path class="cls-3" d="M1366.29,296l-9.63-12,9.23-11.25a3.23,3.23,0,0,0,.73-1.27,4.4,4.4,0,0,0,.21-1.33,3.44,3.44,0,0,0-1.11-2.51,3.67,3.67,0,0,0-2.71-1.11,3.92,3.92,0,0,0-3.21,1.81l-7.62,10.1L1344,268.2a4.07,4.07,0,0,0-6.12-.54,3.73,3.73,0,0,0-1.24,2.88,3.69,3.69,0,0,0,.87,2.4l9.64,12-9.3,11.37a3.91,3.91,0,0,0-1,2.54,3.12,3.12,0,0,0,1.31,2.51,4.24,4.24,0,0,0,2.64,1,3.88,3.88,0,0,0,3.21-1.68l7.86-9.93,8,9.93a3.93,3.93,0,0,0,6.09.54,3.81,3.81,0,0,0,1.27-2.88A3.74,3.74,0,0,0,1366.29,296Z"></path><path class="cls-3" d="M1424.13,286.19a3.4,3.4,0,0,0,1.27-2.61,17.06,17.06,0,0,0-1.37-6.82,18.53,18.53,0,0,0-3.71-5.65,17.76,17.76,0,0,0-5.38-3.85,15.17,15.17,0,0,0-6.46-1.4,16.45,16.45,0,0,0-8.36,2.27,17.26,17.26,0,0,0-6.39,6.52,20.25,20.25,0,0,0-2.44,10.27,18.9,18.9,0,0,0,2.24,9.23,16.39,16.39,0,0,0,6.42,6.45,19.6,19.6,0,0,0,9.87,2.38,19.37,19.37,0,0,0,6.49-1.11,15.47,15.47,0,0,0,4.88-2.57,4.16,4.16,0,0,0,1.87-3.28,3.36,3.36,0,0,0-3.41-3.34,5.1,5.1,0,0,0-2.27.6c-.49.27-1,.59-1.64,1a8.81,8.81,0,0,1-2.38,1,15.38,15.38,0,0,1-3.94.4,10.3,10.3,0,0,1-5.05-1.3,10.15,10.15,0,0,1-3.88-3.82,10,10,0,0,1-1.22-3.31h22A4.24,4.24,0,0,0,1424.13,286.19Zm-22.4-10.64a7.22,7.22,0,0,1,3-1.8,12.48,12.48,0,0,1,3.74-.54,8.64,8.64,0,0,1,3.91.91,8.81,8.81,0,0,1,3.08,2.44,6,6,0,0,1,1.37,3.48v.46h-17.51a11.17,11.17,0,0,1,.39-1.54A8.79,8.79,0,0,1,1401.73,275.55Z"></path><path class="cls-3" d="M1430,296.76a3.7,3.7,0,0,1-.6-2.41,3.2,3.2,0,0,1,1.74-2.54,3.57,3.57,0,0,1,2.27-.57,3.81,3.81,0,0,1,2.34,1.24,15.9,15.9,0,0,0,4.08,3,12,12,0,0,0,5.35,1.07,20.29,20.29,0,0,0,2.21-.3,4.34,4.34,0,0,0,2.11-1.07,3.37,3.37,0,0,0,.9-2.58,2.93,2.93,0,0,0-1-2.34,8.45,8.45,0,0,0-2.64-1.47c-1.1-.4-2.31-.78-3.65-1.14s-2.8-.85-4.25-1.34a17.82,17.82,0,0,1-4-1.9,9.24,9.24,0,0,1-2.94-3.11,9.54,9.54,0,0,1-1.14-4.89,8.84,8.84,0,0,1,1.87-5.68,12.21,12.21,0,0,1,4.85-3.61,15.75,15.75,0,0,1,6.26-1.27,19.9,19.9,0,0,1,4.35.5,17,17,0,0,1,4.34,1.6,10.71,10.71,0,0,1,3.48,2.91,4.76,4.76,0,0,1,.87,2.41,2.86,2.86,0,0,1-1.27,2.54,3.19,3.19,0,0,1-2.34.7,3.48,3.48,0,0,1-2.21-.9,7.92,7.92,0,0,0-3-2.34,10.44,10.44,0,0,0-4.38-.87,11.64,11.64,0,0,0-2.18.23,4.28,4.28,0,0,0-2,1,3.09,3.09,0,0,0-.87,2.44,3.12,3.12,0,0,0,1,2.44,7.63,7.63,0,0,0,2.71,1.47c1.13.38,2.35.75,3.64,1.1s2.7.79,4.08,1.28a16.16,16.16,0,0,1,3.82,1.94,9.22,9.22,0,0,1,2.8,3.11,9.73,9.73,0,0,1,1.07,4.85,8.79,8.79,0,0,1-2,5.82,12.7,12.7,0,0,1-5,3.64,16,16,0,0,1-6.15,1.24,24.06,24.06,0,0,1-7.9-1.37A13.69,13.69,0,0,1,1430,296.76Z"></path><path class="cls-3" d="M1462.26,296.76a3.7,3.7,0,0,1-.6-2.41,3.2,3.2,0,0,1,1.74-2.54,3.57,3.57,0,0,1,2.27-.57,3.81,3.81,0,0,1,2.34,1.24,16.25,16.25,0,0,0,4.08,3,12,12,0,0,0,5.35,1.07,20.29,20.29,0,0,0,2.21-.3,4.34,4.34,0,0,0,2.11-1.07,3.37,3.37,0,0,0,.9-2.58,2.93,2.93,0,0,0-1-2.34,8.45,8.45,0,0,0-2.64-1.47c-1.1-.4-2.31-.78-3.65-1.14s-2.8-.85-4.25-1.34a17.82,17.82,0,0,1-4-1.9,9.24,9.24,0,0,1-2.94-3.11,9.54,9.54,0,0,1-1.14-4.89,8.79,8.79,0,0,1,1.88-5.68,12.11,12.11,0,0,1,4.84-3.61,15.75,15.75,0,0,1,6.26-1.27,19.9,19.9,0,0,1,4.35.5,17,17,0,0,1,4.34,1.6,10.71,10.71,0,0,1,3.48,2.91,4.76,4.76,0,0,1,.87,2.41,2.86,2.86,0,0,1-1.27,2.54,3.19,3.19,0,0,1-2.34.7,3.48,3.48,0,0,1-2.21-.9,7.92,7.92,0,0,0-3-2.34,10.44,10.44,0,0,0-4.38-.87,11.64,11.64,0,0,0-2.18.23,4.28,4.28,0,0,0-2,1,3.09,3.09,0,0,0-.87,2.44,3.12,3.12,0,0,0,1,2.44,7.63,7.63,0,0,0,2.71,1.47c1.13.38,2.35.75,3.64,1.1s2.7.79,4.08,1.28a16,16,0,0,1,3.82,1.94,9.25,9.25,0,0,1,2.81,3.11,9.84,9.84,0,0,1,1.07,4.85,8.8,8.8,0,0,1-2,5.82,12.7,12.7,0,0,1-5,3.64,15.93,15.93,0,0,1-6.15,1.24,24.11,24.11,0,0,1-7.9-1.37A13.69,13.69,0,0,1,1462.26,296.76Z"></path><path class="cls-3" d="M1373.1,257.63a4,4,0,0,1,1.14-2.91,4.12,4.12,0,0,1,5.75,0,4,4,0,0,1,1.14,2.91v30a23,23,0,0,0,.16,2.81,5.09,5.09,0,0,0,.84,2.31,4.36,4.36,0,0,0,2.27,1.5,6.51,6.51,0,0,1,2.44,1.34,3,3,0,0,1,1,2.34v.74a3.73,3.73,0,0,1-1,2.64,3.57,3.57,0,0,1-2.71,1.1,10.34,10.34,0,0,1-5.55-1.53,11.09,11.09,0,0,1-4-4.32,13.9,13.9,0,0,1-1.47-6.59Z"></path><path class="cls-2" d="M744.09,751.89a9.46,9.46,0,0,0-9.45,9.45v35.71a9.45,9.45,0,1,0,18.89,0V761.34A9.45,9.45,0,0,0,744.09,751.89Z"></path><path class="cls-2" d="M772.8,739.78a9.45,9.45,0,1,0,9.45,9.45A9.46,9.46,0,0,0,772.8,739.78Z"></path><path class="cls-2" d="M798.68,757.49a9.45,9.45,0,1,0,9.45,9.45A9.46,9.46,0,0,0,798.68,757.49Z"></path><path class="cls-1" d="M772.94,766.08a9.46,9.46,0,0,0-9.45,9.45v35.71a9.45,9.45,0,0,0,18.9,0V775.53A9.46,9.46,0,0,0,772.94,766.08Z"></path><path class="cls-1" d="M798.68,813.25a9.45,9.45,0,1,0,9.45,9.45A9.46,9.46,0,0,0,798.68,813.25Z"></path><path class="cls-2" d="M843.05,778a5.12,5.12,0,0,0-3.38-1.14,14.2,14.2,0,0,0-3.35.4,12,12,0,0,0-3.14,1.24,11.5,11.5,0,0,0-2.64,2.07,9.94,9.94,0,0,0-1.44,2v-1a4,4,0,0,0-1.14-2.91,4.12,4.12,0,0,0-5.75,0,4,4,0,0,0-1.14,2.91v27.63a4,4,0,0,0,1.14,2.91,4.12,4.12,0,0,0,5.75,0,4,4,0,0,0,1.14-2.91V793.36a12.24,12.24,0,0,1,.64-4.18,9.24,9.24,0,0,1,1.67-3,6.69,6.69,0,0,1,2.27-1.78,6,6,0,0,1,2.44-.56,5.78,5.78,0,0,1,2.38.46,5.41,5.41,0,0,0,2.3.47,3.72,3.72,0,0,0,2.48-1,4,4,0,0,0,1.14-3.18A3.4,3.4,0,0,0,843.05,778Z"></path><path class="cls-2" d="M876.46,806.81l-9.63-12,9.22-11.24a3.33,3.33,0,0,0,.74-1.27A4.84,4.84,0,0,0,877,781a3.48,3.48,0,0,0-1.1-2.51,3.67,3.67,0,0,0-2.71-1.1,3.91,3.91,0,0,0-3.21,1.8l-7.62,10.1-8.24-10.23a4,4,0,0,0-3.27-1.67,4.13,4.13,0,0,0-2.85,1.13,3.89,3.89,0,0,0-.36,5.29l9.63,12L848,807.14a3.9,3.9,0,0,0-1,2.54,3.11,3.11,0,0,0,1.3,2.51,4.24,4.24,0,0,0,2.64,1,3.87,3.87,0,0,0,3.21-1.67l7.86-9.94,8,9.94a4,4,0,0,0,3.28,1.74,4,4,0,0,0,2.8-1.21,3.82,3.82,0,0,0,1.28-2.87A3.7,3.7,0,0,0,876.46,806.81Z"></path><path class="cls-1" d="M934.3,797a3.43,3.43,0,0,0,1.27-2.61,17.27,17.27,0,0,0-1.37-6.82,18.65,18.65,0,0,0-3.71-5.65,17.68,17.68,0,0,0-5.39-3.85,15.31,15.31,0,0,0-6.45-1.4,16.55,16.55,0,0,0-8.36,2.27,17.26,17.26,0,0,0-6.39,6.52,20.3,20.3,0,0,0-2.44,10.27A18.8,18.8,0,0,0,903.7,805a16.41,16.41,0,0,0,6.42,6.46,20.87,20.87,0,0,0,16.35,1.27,15.63,15.63,0,0,0,4.89-2.58,4.19,4.19,0,0,0,1.87-3.28,3.36,3.36,0,0,0-3.41-3.34,5.14,5.14,0,0,0-2.28.6c-.49.27-1,.59-1.63,1a9.09,9.09,0,0,1-2.38,1,15.47,15.47,0,0,1-3.95.4,10.28,10.28,0,0,1-8.93-5.11,10.63,10.63,0,0,1-1.22-3.31h22.06A4.25,4.25,0,0,0,934.3,797Zm-22.41-10.63a7.2,7.2,0,0,1,3-1.81,12.59,12.59,0,0,1,3.75-.53,8.79,8.79,0,0,1,3.91.9,8.9,8.9,0,0,1,3.08,2.44,6.14,6.14,0,0,1,1.37,3.48v.47H909.49a11.92,11.92,0,0,1,.39-1.54A8.77,8.77,0,0,1,911.89,786.41Z"></path><path class="cls-1" d="M940.19,807.61a3.75,3.75,0,0,1-.61-2.41,3.25,3.25,0,0,1,1.74-2.54,3.73,3.73,0,0,1,2.28-.57,3.81,3.81,0,0,1,2.34,1.24,15.67,15.67,0,0,0,4.08,3,12,12,0,0,0,5.35,1.07,20.62,20.62,0,0,0,2.21-.3,4.22,4.22,0,0,0,2.1-1.07,3.34,3.34,0,0,0,.91-2.58,2.94,2.94,0,0,0-1-2.34,8.45,8.45,0,0,0-2.64-1.47c-1.09-.4-2.31-.78-3.64-1.14s-2.8-.84-4.25-1.34a17.2,17.2,0,0,1-4-1.9,9,9,0,0,1-2.94-3.11,9.5,9.5,0,0,1-1.14-4.88,8.82,8.82,0,0,1,1.87-5.69,12.3,12.3,0,0,1,4.85-3.61,15.7,15.7,0,0,1,6.25-1.27,19.77,19.77,0,0,1,4.35.5,17,17,0,0,1,4.35,1.6,10.92,10.92,0,0,1,3.48,2.91,4.79,4.79,0,0,1,.87,2.41,2.87,2.87,0,0,1-1.27,2.54,3.24,3.24,0,0,1-2.34.71,3.52,3.52,0,0,1-2.21-.91,7.92,7.92,0,0,0-3-2.34,10.52,10.52,0,0,0-4.39-.87,10.9,10.9,0,0,0-2.17.24,4.26,4.26,0,0,0-2,1,3.1,3.1,0,0,0-.87,2.44,3.14,3.14,0,0,0,1,2.44,7.41,7.41,0,0,0,2.71,1.47c1.14.38,2.35.75,3.65,1.11s2.7.78,4.08,1.27a16.27,16.27,0,0,1,3.81,1.94,9.14,9.14,0,0,1,2.81,3.11,9.87,9.87,0,0,1,1.07,4.85,8.8,8.8,0,0,1-2,5.82,12.66,12.66,0,0,1-5,3.64,16,16,0,0,1-6.16,1.24,24,24,0,0,1-7.89-1.37A13.58,13.58,0,0,1,940.19,807.61Z"></path><path class="cls-1" d="M972.43,807.61a3.75,3.75,0,0,1-.61-2.41,3.25,3.25,0,0,1,1.74-2.54,3.73,3.73,0,0,1,2.28-.57,3.81,3.81,0,0,1,2.34,1.24,15.67,15.67,0,0,0,4.08,3,12,12,0,0,0,5.35,1.07,20.62,20.62,0,0,0,2.21-.3,4.22,4.22,0,0,0,2.1-1.07,3.34,3.34,0,0,0,.91-2.58,2.94,2.94,0,0,0-1-2.34,8.33,8.33,0,0,0-2.64-1.47c-1.09-.4-2.31-.78-3.64-1.14s-2.8-.84-4.25-1.34a17.2,17.2,0,0,1-4-1.9,9.14,9.14,0,0,1-2.94-3.11,9.5,9.5,0,0,1-1.14-4.88,8.82,8.82,0,0,1,1.87-5.69A12.3,12.3,0,0,1,980,778a15.71,15.71,0,0,1,6.26-1.27,19.75,19.75,0,0,1,4.34.5,17,17,0,0,1,4.35,1.6,10.92,10.92,0,0,1,3.48,2.91,4.79,4.79,0,0,1,.87,2.41,2.87,2.87,0,0,1-1.27,2.54,3.24,3.24,0,0,1-2.34.71,3.52,3.52,0,0,1-2.21-.91,7.92,7.92,0,0,0-3-2.34,10.49,10.49,0,0,0-4.39-.87,10.9,10.9,0,0,0-2.17.24,4.26,4.26,0,0,0-2,1,3.1,3.1,0,0,0-.87,2.44,3.14,3.14,0,0,0,1,2.44,7.41,7.41,0,0,0,2.71,1.47c1.14.38,2.35.75,3.65,1.11s2.7.78,4.08,1.27a16.27,16.27,0,0,1,3.81,1.94,9.14,9.14,0,0,1,2.81,3.11,9.87,9.87,0,0,1,1.07,4.85,8.8,8.8,0,0,1-2,5.82,12.66,12.66,0,0,1-5,3.64,16,16,0,0,1-6.16,1.24,24,24,0,0,1-7.89-1.37A13.58,13.58,0,0,1,972.43,807.61Z"></path><path class="cls-1" d="M883.27,768.48a4,4,0,0,1,1.13-2.91,4.12,4.12,0,0,1,5.75,0,4,4,0,0,1,1.14,2.91v30a22.81,22.81,0,0,0,.17,2.81,5.09,5.09,0,0,0,.84,2.31,4.27,4.27,0,0,0,2.27,1.51,6.58,6.58,0,0,1,2.44,1.33,3,3,0,0,1,1,2.35v.73a3.71,3.71,0,0,1-1,2.64,3.53,3.53,0,0,1-2.71,1.11,10.35,10.35,0,0,1-5.55-1.54,11.07,11.07,0,0,1-3.94-4.32,13.88,13.88,0,0,1-1.47-6.59Z"></path><path class="cls-1" d="M1233.92,751.89a9.46,9.46,0,0,0-9.45,9.45v35.71a9.45,9.45,0,1,0,18.9,0V761.34A9.46,9.46,0,0,0,1233.92,751.89Z"></path><path class="cls-1" d="M1262.64,739.78a9.45,9.45,0,1,0,9.45,9.45A9.46,9.46,0,0,0,1262.64,739.78Z"></path><path class="cls-1" d="M1288.52,757.49a9.45,9.45,0,1,0,9.44,9.45A9.46,9.46,0,0,0,1288.52,757.49Z"></path><path class="cls-2" d="M1262.78,766.08a9.46,9.46,0,0,0-9.45,9.45v35.71a9.45,9.45,0,0,0,18.89,0V775.53A9.45,9.45,0,0,0,1262.78,766.08Z"></path><path class="cls-2" d="M1288.52,813.25a9.45,9.45,0,1,0,9.44,9.45A9.46,9.46,0,0,0,1288.52,813.25Z"></path><path class="cls-1" d="M1332.88,778a5.12,5.12,0,0,0-3.38-1.14,14.12,14.12,0,0,0-3.34.4,12,12,0,0,0-3.15,1.24,11.5,11.5,0,0,0-2.64,2.07,10.79,10.79,0,0,0-1.44,2v-1a4,4,0,0,0-1.13-2.91,4.13,4.13,0,0,0-5.76,0,4,4,0,0,0-1.13,2.91v27.63a4,4,0,0,0,1.13,2.91,4.13,4.13,0,0,0,5.76,0,4,4,0,0,0,1.13-2.91V793.36a12.24,12.24,0,0,1,.64-4.18,9.24,9.24,0,0,1,1.67-3,6.69,6.69,0,0,1,2.27-1.78,6,6,0,0,1,2.45-.56,5.73,5.73,0,0,1,2.37.46,5.42,5.42,0,0,0,2.31.47,3.72,3.72,0,0,0,2.47-1,4,4,0,0,0,1.14-3.18A3.4,3.4,0,0,0,1332.88,778Z"></path><path class="cls-1" d="M1366.29,806.81l-9.63-12,9.23-11.24a3.3,3.3,0,0,0,.73-1.27,4.51,4.51,0,0,0,.21-1.34,3.45,3.45,0,0,0-1.11-2.51,3.66,3.66,0,0,0-2.71-1.1,3.91,3.91,0,0,0-3.21,1.8l-7.62,10.1L1344,779.05a4,4,0,0,0-3.28-1.67,4.09,4.09,0,0,0-2.84,1.13,3.88,3.88,0,0,0-.37,5.29l9.64,12-9.3,11.37a3.91,3.91,0,0,0-1,2.54,3.12,3.12,0,0,0,1.31,2.51,4.24,4.24,0,0,0,2.64,1,3.89,3.89,0,0,0,3.21-1.67l7.86-9.94,8,9.94a3.92,3.92,0,0,0,6.09.53,3.81,3.81,0,0,0,1.27-2.87A3.7,3.7,0,0,0,1366.29,806.81Z"></path><path class="cls-2" d="M1424.13,797a3.4,3.4,0,0,0,1.27-2.61,17.1,17.1,0,0,0-1.37-6.82,18.65,18.65,0,0,0-3.71-5.65,17.76,17.76,0,0,0-5.38-3.85,15.32,15.32,0,0,0-6.46-1.4,16.55,16.55,0,0,0-8.36,2.27,17.33,17.33,0,0,0-6.39,6.52,20.3,20.3,0,0,0-2.44,10.27,18.9,18.9,0,0,0,2.24,9.23,16.47,16.47,0,0,0,6.42,6.46,20.89,20.89,0,0,0,16.36,1.27,15.68,15.68,0,0,0,4.88-2.58,4.16,4.16,0,0,0,1.87-3.28,3.36,3.36,0,0,0-3.41-3.34,5.1,5.1,0,0,0-2.27.6c-.49.27-1,.59-1.64,1a8.81,8.81,0,0,1-2.38,1,15.38,15.38,0,0,1-3.94.4,10.28,10.28,0,0,1-8.93-5.11,10.16,10.16,0,0,1-1.22-3.31h22A4.25,4.25,0,0,0,1424.13,797Zm-22.4-10.63a7.14,7.14,0,0,1,3-1.81,12.48,12.48,0,0,1,3.74-.53,9,9,0,0,1,7,3.34,6.07,6.07,0,0,1,1.37,3.48v.47h-17.51a10.48,10.48,0,0,1,.39-1.54A8.65,8.65,0,0,1,1401.73,786.41Z"></path><path class="cls-2" d="M1430,807.61a3.68,3.68,0,0,1-.6-2.41,3.2,3.2,0,0,1,1.74-2.54,3.7,3.7,0,0,1,2.27-.57,3.81,3.81,0,0,1,2.34,1.24,15.67,15.67,0,0,0,4.08,3,12,12,0,0,0,5.35,1.07,20.29,20.29,0,0,0,2.21-.3,4.26,4.26,0,0,0,2.11-1.07,3.37,3.37,0,0,0,.9-2.58,2.93,2.93,0,0,0-1-2.34,8.45,8.45,0,0,0-2.64-1.47c-1.1-.4-2.31-.78-3.65-1.14s-2.8-.84-4.25-1.34a17.4,17.4,0,0,1-4-1.9,9.24,9.24,0,0,1-2.94-3.11,9.5,9.5,0,0,1-1.14-4.88,8.87,8.87,0,0,1,1.87-5.69,12.3,12.3,0,0,1,4.85-3.61,15.75,15.75,0,0,1,6.26-1.27,19.9,19.9,0,0,1,4.35.5,17,17,0,0,1,4.34,1.6,10.71,10.71,0,0,1,3.48,2.91,4.79,4.79,0,0,1,.87,2.41,2.85,2.85,0,0,1-1.27,2.54,3.24,3.24,0,0,1-2.34.71,3.55,3.55,0,0,1-2.21-.91,7.92,7.92,0,0,0-3-2.34,10.44,10.44,0,0,0-4.38-.87,10.91,10.91,0,0,0-2.18.24,4.26,4.26,0,0,0-2,1,3.64,3.64,0,0,0,.14,4.88,7.33,7.33,0,0,0,2.71,1.47c1.13.38,2.35.75,3.64,1.11s2.7.78,4.08,1.27a16.54,16.54,0,0,1,3.82,1.94,9.22,9.22,0,0,1,2.8,3.11,9.76,9.76,0,0,1,1.07,4.85,8.79,8.79,0,0,1-2,5.82,12.7,12.7,0,0,1-5,3.64,16,16,0,0,1-6.15,1.24,24.06,24.06,0,0,1-7.9-1.37A13.63,13.63,0,0,1,1430,807.61Z"></path><path class="cls-2" d="M1462.26,807.61a3.68,3.68,0,0,1-.6-2.41,3.2,3.2,0,0,1,1.74-2.54,3.7,3.7,0,0,1,2.27-.57,3.81,3.81,0,0,1,2.34,1.24,16,16,0,0,0,4.08,3,12,12,0,0,0,5.35,1.07,20.29,20.29,0,0,0,2.21-.3,4.26,4.26,0,0,0,2.11-1.07,3.37,3.37,0,0,0,.9-2.58,2.93,2.93,0,0,0-1-2.34,8.45,8.45,0,0,0-2.64-1.47c-1.1-.4-2.31-.78-3.65-1.14s-2.8-.84-4.25-1.34a17.4,17.4,0,0,1-4-1.9,9.24,9.24,0,0,1-2.94-3.11,9.5,9.5,0,0,1-1.14-4.88,8.82,8.82,0,0,1,1.88-5.69,12.2,12.2,0,0,1,4.84-3.61,15.75,15.75,0,0,1,6.26-1.27,19.9,19.9,0,0,1,4.35.5,17,17,0,0,1,4.34,1.6,10.71,10.71,0,0,1,3.48,2.91,4.79,4.79,0,0,1,.87,2.41,2.85,2.85,0,0,1-1.27,2.54,3.24,3.24,0,0,1-2.34.71,3.55,3.55,0,0,1-2.21-.91,7.92,7.92,0,0,0-3-2.34,10.44,10.44,0,0,0-4.38-.87,10.91,10.91,0,0,0-2.18.24,4.26,4.26,0,0,0-2,1,3.64,3.64,0,0,0,.14,4.88,7.33,7.33,0,0,0,2.71,1.47c1.13.38,2.35.75,3.64,1.11s2.7.78,4.08,1.27a16.34,16.34,0,0,1,3.82,1.94,9.25,9.25,0,0,1,2.81,3.11,9.87,9.87,0,0,1,1.07,4.85,8.8,8.8,0,0,1-2,5.82,12.7,12.7,0,0,1-5,3.64,15.93,15.93,0,0,1-6.15,1.24,24.11,24.11,0,0,1-7.9-1.37A13.63,13.63,0,0,1,1462.26,807.61Z"></path><path class="cls-2" d="M1373.1,768.48a4,4,0,0,1,1.14-2.91,4.12,4.12,0,0,1,5.75,0,4,4,0,0,1,1.14,2.91v30a22.87,22.87,0,0,0,.16,2.81,5.09,5.09,0,0,0,.84,2.31,4.31,4.31,0,0,0,2.27,1.51,6.5,6.5,0,0,1,2.44,1.33,3,3,0,0,1,1,2.35v.73a3.7,3.7,0,0,1-1,2.64,3.54,3.54,0,0,1-2.71,1.11,10.35,10.35,0,0,1-5.55-1.54,11.09,11.09,0,0,1-4-4.32,13.88,13.88,0,0,1-1.47-6.59Z"></path><path class="cls-1" d="M1716.62,241a9.46,9.46,0,0,0-9.45,9.45V286.2a9.45,9.45,0,0,0,18.89,0V250.49A9.45,9.45,0,0,0,1716.62,241Z"></path><path class="cls-1" d="M1745.33,228.93a9.45,9.45,0,1,0,9.45,9.45A9.46,9.46,0,0,0,1745.33,228.93Z"></path><path class="cls-1" d="M1771.21,246.64a9.45,9.45,0,1,0,9.45,9.45A9.46,9.46,0,0,0,1771.21,246.64Z"></path><path class="cls-1" d="M1745.47,255.22a9.46,9.46,0,0,0-9.45,9.45v35.71a9.45,9.45,0,0,0,18.9,0V264.67A9.46,9.46,0,0,0,1745.47,255.22Z"></path><path class="cls-1" d="M1771.21,302.4a9.45,9.45,0,1,0,9.45,9.45A9.46,9.46,0,0,0,1771.21,302.4Z"></path><path class="cls-1" d="M1815.58,267.13a5.12,5.12,0,0,0-3.38-1.14,14.2,14.2,0,0,0-3.35.4,12,12,0,0,0-3.14,1.24,11.5,11.5,0,0,0-2.64,2.07,10.16,10.16,0,0,0-1.44,2v-1a4,4,0,0,0-1.14-2.91,4.12,4.12,0,0,0-5.75,0,4,4,0,0,0-1.14,2.91v27.62a4,4,0,0,0,1.14,2.91,4.12,4.12,0,0,0,5.75,0,4,4,0,0,0,1.14-2.91V282.51a12.24,12.24,0,0,1,.64-4.18,9.4,9.4,0,0,1,1.67-3,6.78,6.78,0,0,1,2.27-1.77,5.85,5.85,0,0,1,4.82-.1,5.56,5.56,0,0,0,2.3.47,3.72,3.72,0,0,0,2.48-1,4,4,0,0,0,1.14-3.18A3.4,3.4,0,0,0,1815.58,267.13Z"></path><path class="cls-1" d="M1849,296l-9.63-12,9.22-11.25a3.25,3.25,0,0,0,.74-1.27,4.71,4.71,0,0,0,.2-1.33,3.46,3.46,0,0,0-1.1-2.51,3.68,3.68,0,0,0-2.71-1.11,3.92,3.92,0,0,0-3.21,1.81l-7.62,10.1-8.24-10.23a4,4,0,0,0-3.27-1.68,4.1,4.1,0,0,0-2.85,1.14,3.76,3.76,0,0,0-1.23,2.88,3.69,3.69,0,0,0,.87,2.4l9.63,12-9.3,11.37a3.9,3.9,0,0,0-1,2.54,3.11,3.11,0,0,0,1.3,2.51,4.24,4.24,0,0,0,2.64,1,3.85,3.85,0,0,0,3.21-1.68l7.86-9.93,8,9.93a3.92,3.92,0,0,0,6.08.54,3.82,3.82,0,0,0,1.28-2.88A3.74,3.74,0,0,0,1849,296Z"></path><path class="cls-1" d="M1906.83,286.19a3.43,3.43,0,0,0,1.27-2.61,17.24,17.24,0,0,0-1.37-6.82,18.53,18.53,0,0,0-3.71-5.65,17.68,17.68,0,0,0-5.39-3.85,15.16,15.16,0,0,0-6.45-1.4,16.45,16.45,0,0,0-8.36,2.27,17.19,17.19,0,0,0-6.39,6.52,20.25,20.25,0,0,0-2.44,10.27,18.8,18.8,0,0,0,2.24,9.23,16.32,16.32,0,0,0,6.42,6.45,19.57,19.57,0,0,0,9.87,2.38,19.32,19.32,0,0,0,6.48-1.11,15.43,15.43,0,0,0,4.89-2.57,4.19,4.19,0,0,0,1.87-3.28,3.36,3.36,0,0,0-3.41-3.34,5.14,5.14,0,0,0-2.28.6c-.49.27-1,.59-1.63,1a9.09,9.09,0,0,1-2.38,1,15.47,15.47,0,0,1-4,.4,10.28,10.28,0,0,1-10.15-8.43H1904A4.24,4.24,0,0,0,1906.83,286.19Zm-22.41-10.64a7.29,7.29,0,0,1,3-1.8,12.59,12.59,0,0,1,3.75-.54,8.67,8.67,0,0,1,3.91.91,8.9,8.9,0,0,1,3.08,2.44,6.11,6.11,0,0,1,1.37,3.48v.46H1882a12.82,12.82,0,0,1,.39-1.54A8.92,8.92,0,0,1,1884.42,275.55Z"></path><path class="cls-1" d="M1912.72,296.76a3.76,3.76,0,0,1-.61-2.41,3.25,3.25,0,0,1,1.74-2.54,3.6,3.6,0,0,1,2.28-.57,3.81,3.81,0,0,1,2.34,1.24,15.9,15.9,0,0,0,4.08,3,12,12,0,0,0,5.35,1.07,20.62,20.62,0,0,0,2.21-.3,4.31,4.31,0,0,0,2.1-1.07,3.34,3.34,0,0,0,.91-2.58,2.94,2.94,0,0,0-1-2.34,8.45,8.45,0,0,0-2.64-1.47c-1.09-.4-2.31-.78-3.64-1.14s-2.8-.85-4.25-1.34a17.61,17.61,0,0,1-4-1.9,9,9,0,0,1-2.94-3.11,9.54,9.54,0,0,1-1.14-4.89,8.79,8.79,0,0,1,1.87-5.68,12.21,12.21,0,0,1,4.85-3.61,15.7,15.7,0,0,1,6.25-1.27,19.77,19.77,0,0,1,4.35.5,17,17,0,0,1,4.35,1.6,10.92,10.92,0,0,1,3.48,2.91,4.76,4.76,0,0,1,.87,2.41,2.88,2.88,0,0,1-1.27,2.54,3.19,3.19,0,0,1-2.34.7,3.46,3.46,0,0,1-2.21-.9,7.92,7.92,0,0,0-3-2.34,10.52,10.52,0,0,0-4.39-.87,11.63,11.63,0,0,0-2.17.23,4.28,4.28,0,0,0-2,1,3.09,3.09,0,0,0-.87,2.44,3.15,3.15,0,0,0,1,2.44,7.71,7.71,0,0,0,2.71,1.47c1.14.38,2.35.75,3.65,1.1s2.7.79,4.08,1.28a15.9,15.9,0,0,1,3.81,1.94,9.14,9.14,0,0,1,2.81,3.11,9.84,9.84,0,0,1,1.07,4.85,8.8,8.8,0,0,1-2,5.82,12.66,12.66,0,0,1-5,3.64,16,16,0,0,1-6.16,1.24,24,24,0,0,1-7.89-1.37A13.64,13.64,0,0,1,1912.72,296.76Z"></path><path class="cls-1" d="M1945,296.76a3.76,3.76,0,0,1-.61-2.41,3.25,3.25,0,0,1,1.74-2.54,3.6,3.6,0,0,1,2.28-.57,3.81,3.81,0,0,1,2.34,1.24,15.9,15.9,0,0,0,4.08,3,12,12,0,0,0,5.35,1.07,20.62,20.62,0,0,0,2.21-.3,4.31,4.31,0,0,0,2.1-1.07,3.34,3.34,0,0,0,.91-2.58,2.94,2.94,0,0,0-1-2.34,8.33,8.33,0,0,0-2.64-1.47c-1.09-.4-2.31-.78-3.64-1.14s-2.8-.85-4.25-1.34a17.61,17.61,0,0,1-4-1.9,9.14,9.14,0,0,1-2.94-3.11,9.54,9.54,0,0,1-1.14-4.89,8.79,8.79,0,0,1,1.87-5.68,12.21,12.21,0,0,1,4.85-3.61,15.71,15.71,0,0,1,6.26-1.27,19.75,19.75,0,0,1,4.34.5,17,17,0,0,1,4.35,1.6,10.92,10.92,0,0,1,3.48,2.91,4.76,4.76,0,0,1,.87,2.41,2.88,2.88,0,0,1-1.27,2.54,3.19,3.19,0,0,1-2.34.7,3.46,3.46,0,0,1-2.21-.9,7.92,7.92,0,0,0-3-2.34,10.49,10.49,0,0,0-4.39-.87,11.63,11.63,0,0,0-2.17.23,4.28,4.28,0,0,0-2,1,3.09,3.09,0,0,0-.87,2.44,3.15,3.15,0,0,0,1,2.44,7.71,7.71,0,0,0,2.71,1.47c1.14.38,2.35.75,3.65,1.1s2.7.79,4.08,1.28a15.9,15.9,0,0,1,3.81,1.94,9.14,9.14,0,0,1,2.81,3.11,9.84,9.84,0,0,1,1.07,4.85,8.8,8.8,0,0,1-2,5.82,12.66,12.66,0,0,1-5,3.64,16,16,0,0,1-6.16,1.24,24,24,0,0,1-7.89-1.37A13.64,13.64,0,0,1,1945,296.76Z"></path><path class="cls-1" d="M1855.8,257.63a4,4,0,0,1,1.13-2.91,4.12,4.12,0,0,1,5.75,0,4,4,0,0,1,1.14,2.91v30a22.93,22.93,0,0,0,.17,2.81,5.09,5.09,0,0,0,.84,2.31,4.31,4.31,0,0,0,2.27,1.5,6.59,6.59,0,0,1,2.44,1.34,3,3,0,0,1,1,2.34v.74a3.74,3.74,0,0,1-1,2.64,3.56,3.56,0,0,1-2.71,1.1,10.34,10.34,0,0,1-5.55-1.53,11.07,11.07,0,0,1-3.94-4.32,13.9,13.9,0,0,1-1.47-6.59Z"></path><path class="cls-1" d="M1716.62,751.89a9.46,9.46,0,0,0-9.45,9.45v35.71a9.45,9.45,0,1,0,18.89,0V761.34A9.45,9.45,0,0,0,1716.62,751.89Z"></path><path class="cls-1" d="M1745.33,739.78a9.45,9.45,0,1,0,9.45,9.45A9.46,9.46,0,0,0,1745.33,739.78Z"></path><path class="cls-1" d="M1771.21,757.49a9.45,9.45,0,1,0,9.45,9.45A9.46,9.46,0,0,0,1771.21,757.49Z"></path><path class="cls-1" d="M1745.47,766.08a9.46,9.46,0,0,0-9.45,9.45v35.71a9.45,9.45,0,0,0,18.9,0V775.53A9.46,9.46,0,0,0,1745.47,766.08Z"></path><path class="cls-1" d="M1771.21,813.25a9.45,9.45,0,1,0,9.45,9.45A9.46,9.46,0,0,0,1771.21,813.25Z"></path><path class="cls-1" d="M1815.58,778a5.12,5.12,0,0,0-3.38-1.14,14.2,14.2,0,0,0-3.35.4,12,12,0,0,0-3.14,1.24,11.5,11.5,0,0,0-2.64,2.07,9.94,9.94,0,0,0-1.44,2v-1a4,4,0,0,0-1.14-2.91,4.12,4.12,0,0,0-5.75,0,4,4,0,0,0-1.14,2.91v27.63a4,4,0,0,0,1.14,2.91,4.12,4.12,0,0,0,5.75,0,4,4,0,0,0,1.14-2.91V793.36a12.24,12.24,0,0,1,.64-4.18,9.24,9.24,0,0,1,1.67-3,6.69,6.69,0,0,1,2.27-1.78,6,6,0,0,1,2.44-.56,5.78,5.78,0,0,1,2.38.46,5.41,5.41,0,0,0,2.3.47,3.72,3.72,0,0,0,2.48-1,4,4,0,0,0,1.14-3.18A3.4,3.4,0,0,0,1815.58,778Z"></path><path class="cls-1" d="M1849,806.81l-9.63-12,9.22-11.24a3.33,3.33,0,0,0,.74-1.27,4.84,4.84,0,0,0,.2-1.34,3.48,3.48,0,0,0-1.1-2.51,3.67,3.67,0,0,0-2.71-1.1,3.91,3.91,0,0,0-3.21,1.8l-7.62,10.1-8.24-10.23a4,4,0,0,0-3.27-1.67,4.13,4.13,0,0,0-2.85,1.13,3.89,3.89,0,0,0-.36,5.29l9.63,12-9.3,11.37a3.9,3.9,0,0,0-1,2.54,3.11,3.11,0,0,0,1.3,2.51,4.24,4.24,0,0,0,2.64,1,3.87,3.87,0,0,0,3.21-1.67l7.86-9.94,8,9.94a4,4,0,0,0,3.28,1.74,4,4,0,0,0,2.8-1.21,3.82,3.82,0,0,0,1.28-2.87A3.7,3.7,0,0,0,1849,806.81Z"></path><path class="cls-1" d="M1906.83,797a3.43,3.43,0,0,0,1.27-2.61,17.27,17.27,0,0,0-1.37-6.82A18.65,18.65,0,0,0,1903,782a17.68,17.68,0,0,0-5.39-3.85,15.31,15.31,0,0,0-6.45-1.4,16.55,16.55,0,0,0-8.36,2.27,17.26,17.26,0,0,0-6.39,6.52,20.3,20.3,0,0,0-2.44,10.27,18.8,18.8,0,0,0,2.24,9.23,16.41,16.41,0,0,0,6.42,6.46,20.87,20.87,0,0,0,16.35,1.27,15.63,15.63,0,0,0,4.89-2.58,4.19,4.19,0,0,0,1.87-3.28,3.36,3.36,0,0,0-3.41-3.34,5.14,5.14,0,0,0-2.28.6c-.49.27-1,.59-1.63,1a9.09,9.09,0,0,1-2.38,1,15.47,15.47,0,0,1-4,.4,10.28,10.28,0,0,1-8.93-5.11,10.63,10.63,0,0,1-1.22-3.31H1904A4.25,4.25,0,0,0,1906.83,797Zm-22.41-10.63a7.2,7.2,0,0,1,3-1.81,12.59,12.59,0,0,1,3.75-.53,8.79,8.79,0,0,1,3.91.9,8.9,8.9,0,0,1,3.08,2.44,6.14,6.14,0,0,1,1.37,3.48v.47H1882a11.92,11.92,0,0,1,.39-1.54A8.77,8.77,0,0,1,1884.42,786.41Z"></path><path class="cls-1" d="M1912.72,807.61a3.75,3.75,0,0,1-.61-2.41,3.25,3.25,0,0,1,1.74-2.54,3.73,3.73,0,0,1,2.28-.57,3.81,3.81,0,0,1,2.34,1.24,15.67,15.67,0,0,0,4.08,3,12,12,0,0,0,5.35,1.07,20.62,20.62,0,0,0,2.21-.3,4.22,4.22,0,0,0,2.1-1.07,3.34,3.34,0,0,0,.91-2.58,2.94,2.94,0,0,0-1-2.34,8.45,8.45,0,0,0-2.64-1.47c-1.09-.4-2.31-.78-3.64-1.14s-2.8-.84-4.25-1.34a17.2,17.2,0,0,1-4-1.9,9,9,0,0,1-2.94-3.11,9.5,9.5,0,0,1-1.14-4.88,8.82,8.82,0,0,1,1.87-5.69,12.3,12.3,0,0,1,4.85-3.61,15.7,15.7,0,0,1,6.25-1.27,19.77,19.77,0,0,1,4.35.5,17,17,0,0,1,4.35,1.6,10.92,10.92,0,0,1,3.48,2.91,4.79,4.79,0,0,1,.87,2.41,2.87,2.87,0,0,1-1.27,2.54,3.24,3.24,0,0,1-2.34.71,3.52,3.52,0,0,1-2.21-.91,7.92,7.92,0,0,0-3-2.34,10.52,10.52,0,0,0-4.39-.87,10.9,10.9,0,0,0-2.17.24,4.26,4.26,0,0,0-2,1,3.1,3.1,0,0,0-.87,2.44,3.14,3.14,0,0,0,1,2.44,7.41,7.41,0,0,0,2.71,1.47c1.14.38,2.35.75,3.65,1.11s2.7.78,4.08,1.27a16.27,16.27,0,0,1,3.81,1.94,9.14,9.14,0,0,1,2.81,3.11,9.87,9.87,0,0,1,1.07,4.85,8.8,8.8,0,0,1-2,5.82,12.66,12.66,0,0,1-5,3.64,16,16,0,0,1-6.16,1.24,24,24,0,0,1-7.89-1.37A13.58,13.58,0,0,1,1912.72,807.61Z"></path><path class="cls-1" d="M1945,807.61a3.75,3.75,0,0,1-.61-2.41,3.25,3.25,0,0,1,1.74-2.54,3.73,3.73,0,0,1,2.28-.57,3.81,3.81,0,0,1,2.34,1.24,15.67,15.67,0,0,0,4.08,3,12,12,0,0,0,5.35,1.07,20.62,20.62,0,0,0,2.21-.3,4.22,4.22,0,0,0,2.1-1.07,3.34,3.34,0,0,0,.91-2.58,2.94,2.94,0,0,0-1-2.34,8.33,8.33,0,0,0-2.64-1.47c-1.09-.4-2.31-.78-3.64-1.14s-2.8-.84-4.25-1.34a17.2,17.2,0,0,1-4-1.9,9.14,9.14,0,0,1-2.94-3.11,9.5,9.5,0,0,1-1.14-4.88,8.82,8.82,0,0,1,1.87-5.69,12.3,12.3,0,0,1,4.85-3.61,15.71,15.71,0,0,1,6.26-1.27,19.75,19.75,0,0,1,4.34.5,17,17,0,0,1,4.35,1.6,10.92,10.92,0,0,1,3.48,2.91,4.79,4.79,0,0,1,.87,2.41,2.87,2.87,0,0,1-1.27,2.54,3.24,3.24,0,0,1-2.34.71,3.52,3.52,0,0,1-2.21-.91,7.92,7.92,0,0,0-3-2.34,10.49,10.49,0,0,0-4.39-.87,10.9,10.9,0,0,0-2.17.24,4.26,4.26,0,0,0-2,1,3.1,3.1,0,0,0-.87,2.44,3.14,3.14,0,0,0,1,2.44,7.41,7.41,0,0,0,2.71,1.47c1.14.38,2.35.75,3.65,1.11s2.7.78,4.08,1.27a16.27,16.27,0,0,1,3.81,1.94,9.14,9.14,0,0,1,2.81,3.11,9.87,9.87,0,0,1,1.07,4.85,8.8,8.8,0,0,1-2,5.82,12.66,12.66,0,0,1-5,3.64,16,16,0,0,1-6.16,1.24,24,24,0,0,1-7.89-1.37A13.58,13.58,0,0,1,1945,807.61Z"></path><path class="cls-1" d="M1855.8,768.48a4,4,0,0,1,1.13-2.91,4.12,4.12,0,0,1,5.75,0,4,4,0,0,1,1.14,2.91v30a22.81,22.81,0,0,0,.17,2.81,5.09,5.09,0,0,0,.84,2.31,4.27,4.27,0,0,0,2.27,1.51,6.58,6.58,0,0,1,2.44,1.33,3,3,0,0,1,1,2.35v.73a3.71,3.71,0,0,1-1,2.64,3.53,3.53,0,0,1-2.71,1.11,10.35,10.35,0,0,1-5.55-1.54,11.07,11.07,0,0,1-3.94-4.32,13.88,13.88,0,0,1-1.47-6.59Z"></path><path class="cls-7" d="M2170.16,241a9.46,9.46,0,0,0-9.45,9.45V286.2a9.45,9.45,0,0,0,18.9,0V250.49A9.46,9.46,0,0,0,2170.16,241Z"></path><path class="cls-7" d="M2198.88,228.93a9.45,9.45,0,1,0,9.45,9.45A9.46,9.46,0,0,0,2198.88,228.93Z"></path><path class="cls-7" d="M2224.76,246.64a9.45,9.45,0,1,0,9.44,9.45A9.46,9.46,0,0,0,2224.76,246.64Z"></path><path class="cls-7" d="M2199,255.22a9.46,9.46,0,0,0-9.45,9.45v35.71a9.45,9.45,0,1,0,18.89,0V264.67A9.45,9.45,0,0,0,2199,255.22Z"></path><path class="cls-7" d="M2224.76,302.4a9.45,9.45,0,1,0,9.44,9.45A9.46,9.46,0,0,0,2224.76,302.4Z"></path><path class="cls-7" d="M2269.12,267.13a5.12,5.12,0,0,0-3.38-1.14,14.12,14.12,0,0,0-3.34.4,12,12,0,0,0-3.15,1.24,11.5,11.5,0,0,0-2.64,2.07,11.05,11.05,0,0,0-1.44,2v-1a4,4,0,0,0-1.13-2.91,4.13,4.13,0,0,0-5.76,0,4,4,0,0,0-1.13,2.91v27.62a4,4,0,0,0,1.13,2.91,4.13,4.13,0,0,0,5.76,0,4,4,0,0,0,1.13-2.91V282.51a12.24,12.24,0,0,1,.64-4.18,9.4,9.4,0,0,1,1.67-3,6.78,6.78,0,0,1,2.27-1.77,5.83,5.83,0,0,1,2.45-.57,5.73,5.73,0,0,1,2.37.47,5.58,5.58,0,0,0,2.31.47,3.72,3.72,0,0,0,2.47-1,4,4,0,0,0,1.14-3.18A3.4,3.4,0,0,0,2269.12,267.13Z"></path><path class="cls-7" d="M2302.53,296l-9.63-12,9.23-11.25a3.23,3.23,0,0,0,.73-1.27,4.4,4.4,0,0,0,.21-1.33,3.44,3.44,0,0,0-1.11-2.51,3.67,3.67,0,0,0-2.71-1.11,3.92,3.92,0,0,0-3.21,1.81l-7.62,10.1-8.23-10.23a4.07,4.07,0,0,0-6.12-.54,3.73,3.73,0,0,0-1.24,2.88,3.69,3.69,0,0,0,.87,2.4l9.64,12-9.3,11.37a3.91,3.91,0,0,0-1,2.54,3.12,3.12,0,0,0,1.31,2.51,4.24,4.24,0,0,0,2.64,1,3.88,3.88,0,0,0,3.21-1.68l7.86-9.93,8,9.93a3.93,3.93,0,0,0,6.09.54,3.81,3.81,0,0,0,1.27-2.88A3.74,3.74,0,0,0,2302.53,296Z"></path><path class="cls-7" d="M2360.37,286.19a3.4,3.4,0,0,0,1.27-2.61,17.06,17.06,0,0,0-1.37-6.82,18.53,18.53,0,0,0-3.71-5.65,17.76,17.76,0,0,0-5.38-3.85,15.17,15.17,0,0,0-6.46-1.4,16.45,16.45,0,0,0-8.36,2.27,17.26,17.26,0,0,0-6.39,6.52,20.25,20.25,0,0,0-2.44,10.27,18.9,18.9,0,0,0,2.24,9.23,16.39,16.39,0,0,0,6.42,6.45,19.6,19.6,0,0,0,9.87,2.38,19.37,19.37,0,0,0,6.49-1.11,15.47,15.47,0,0,0,4.88-2.57,4.16,4.16,0,0,0,1.87-3.28,3.36,3.36,0,0,0-3.41-3.34,5.1,5.1,0,0,0-2.27.6c-.49.27-1,.59-1.64,1a8.81,8.81,0,0,1-2.38,1,15.38,15.38,0,0,1-3.94.4,10.3,10.3,0,0,1-5-1.3,10.15,10.15,0,0,1-3.88-3.82,10,10,0,0,1-1.22-3.31h22A4.24,4.24,0,0,0,2360.37,286.19ZM2338,275.55a7.22,7.22,0,0,1,3-1.8,12.52,12.52,0,0,1,3.74-.54,8.64,8.64,0,0,1,3.91.91,8.81,8.81,0,0,1,3.08,2.44,6,6,0,0,1,1.37,3.48v.46h-17.51A11.17,11.17,0,0,1,2336,279,8.79,8.79,0,0,1,2338,275.55Z"></path><path class="cls-7" d="M2366.26,296.76a3.7,3.7,0,0,1-.6-2.41,3.2,3.2,0,0,1,1.74-2.54,3.57,3.57,0,0,1,2.27-.57,3.81,3.81,0,0,1,2.34,1.24,15.9,15.9,0,0,0,4.08,3,12,12,0,0,0,5.35,1.07,20.29,20.29,0,0,0,2.21-.3,4.34,4.34,0,0,0,2.11-1.07,3.37,3.37,0,0,0,.9-2.58,2.93,2.93,0,0,0-1-2.34,8.45,8.45,0,0,0-2.64-1.47c-1.1-.4-2.31-.78-3.65-1.14s-2.8-.85-4.25-1.34a17.82,17.82,0,0,1-4-1.9,9.24,9.24,0,0,1-2.94-3.11,9.54,9.54,0,0,1-1.14-4.89,8.84,8.84,0,0,1,1.87-5.68,12.21,12.21,0,0,1,4.85-3.61,15.75,15.75,0,0,1,6.26-1.27,19.9,19.9,0,0,1,4.35.5,17,17,0,0,1,4.34,1.6,10.71,10.71,0,0,1,3.48,2.91,4.76,4.76,0,0,1,.87,2.41,2.86,2.86,0,0,1-1.27,2.54,3.19,3.19,0,0,1-2.34.7,3.48,3.48,0,0,1-2.21-.9,7.92,7.92,0,0,0-3-2.34,10.44,10.44,0,0,0-4.38-.87,11.64,11.64,0,0,0-2.18.23,4.28,4.28,0,0,0-2,1,3.09,3.09,0,0,0-.87,2.44,3.12,3.12,0,0,0,1,2.44,7.63,7.63,0,0,0,2.71,1.47c1.13.38,2.35.75,3.64,1.1s2.7.79,4.08,1.28a16.16,16.16,0,0,1,3.82,1.94,9.22,9.22,0,0,1,2.8,3.11,9.73,9.73,0,0,1,1.07,4.85,8.79,8.79,0,0,1-2,5.82,12.7,12.7,0,0,1-5,3.64,16,16,0,0,1-6.15,1.24,24.06,24.06,0,0,1-7.9-1.37A13.69,13.69,0,0,1,2366.26,296.76Z"></path><path class="cls-7" d="M2398.5,296.76a3.7,3.7,0,0,1-.6-2.41,3.2,3.2,0,0,1,1.74-2.54,3.57,3.57,0,0,1,2.27-.57,3.81,3.81,0,0,1,2.34,1.24,16.25,16.25,0,0,0,4.08,3,12,12,0,0,0,5.35,1.07,20.29,20.29,0,0,0,2.21-.3,4.34,4.34,0,0,0,2.11-1.07,3.37,3.37,0,0,0,.9-2.58,2.93,2.93,0,0,0-1-2.34,8.45,8.45,0,0,0-2.64-1.47c-1.1-.4-2.31-.78-3.65-1.14s-2.8-.85-4.25-1.34a17.82,17.82,0,0,1-4-1.9,9.24,9.24,0,0,1-2.94-3.11,9.54,9.54,0,0,1-1.14-4.89,8.79,8.79,0,0,1,1.88-5.68,12.11,12.11,0,0,1,4.84-3.61,15.75,15.75,0,0,1,6.26-1.27,19.9,19.9,0,0,1,4.35.5A17,17,0,0,1,2421,268a10.71,10.71,0,0,1,3.48,2.91,4.76,4.76,0,0,1,.87,2.41,2.86,2.86,0,0,1-1.27,2.54,3.19,3.19,0,0,1-2.34.7,3.48,3.48,0,0,1-2.21-.9,7.92,7.92,0,0,0-3-2.34,10.44,10.44,0,0,0-4.38-.87,11.64,11.64,0,0,0-2.18.23,4.28,4.28,0,0,0-2,1,3.09,3.09,0,0,0-.87,2.44,3.12,3.12,0,0,0,1,2.44,7.63,7.63,0,0,0,2.71,1.47c1.13.38,2.35.75,3.64,1.1s2.7.79,4.08,1.28a16,16,0,0,1,3.82,1.94,9.25,9.25,0,0,1,2.81,3.11,9.84,9.84,0,0,1,1.07,4.85,8.8,8.8,0,0,1-2,5.82,12.7,12.7,0,0,1-5,3.64A15.93,15.93,0,0,1,2413,303a24.11,24.11,0,0,1-7.9-1.37A13.69,13.69,0,0,1,2398.5,296.76Z"></path><path class="cls-7" d="M2309.34,257.63a4,4,0,0,1,1.14-2.91,4.12,4.12,0,0,1,5.75,0,4,4,0,0,1,1.14,2.91v30a23,23,0,0,0,.16,2.81,5.09,5.09,0,0,0,.84,2.31,4.36,4.36,0,0,0,2.27,1.5,6.51,6.51,0,0,1,2.44,1.34,3,3,0,0,1,1,2.34v.74a3.73,3.73,0,0,1-1,2.64,3.57,3.57,0,0,1-2.71,1.1,10.34,10.34,0,0,1-5.55-1.53,11.09,11.09,0,0,1-4-4.32,13.9,13.9,0,0,1-1.47-6.59Z"></path><path class="cls-2" d="M2170.16,751.89a9.46,9.46,0,0,0-9.45,9.45v35.71a9.45,9.45,0,0,0,18.9,0V761.34A9.46,9.46,0,0,0,2170.16,751.89Z"></path><path class="cls-2" d="M2198.88,739.78a9.45,9.45,0,1,0,9.45,9.45A9.46,9.46,0,0,0,2198.88,739.78Z"></path><path class="cls-2" d="M2224.76,757.49a9.45,9.45,0,1,0,9.44,9.45A9.46,9.46,0,0,0,2224.76,757.49Z"></path><path class="cls-2" d="M2199,766.08a9.46,9.46,0,0,0-9.45,9.45v35.71a9.45,9.45,0,0,0,18.89,0V775.53A9.45,9.45,0,0,0,2199,766.08Z"></path><path class="cls-2" d="M2224.76,813.25a9.45,9.45,0,1,0,9.44,9.45A9.46,9.46,0,0,0,2224.76,813.25Z"></path><path class="cls-2" d="M2269.12,778a5.12,5.12,0,0,0-3.38-1.14,14.12,14.12,0,0,0-3.34.4,12,12,0,0,0-3.15,1.24,11.5,11.5,0,0,0-2.64,2.07,10.79,10.79,0,0,0-1.44,2v-1a4,4,0,0,0-1.13-2.91,4.13,4.13,0,0,0-5.76,0,4,4,0,0,0-1.13,2.91v27.63a4,4,0,0,0,1.13,2.91,4.13,4.13,0,0,0,5.76,0,4,4,0,0,0,1.13-2.91V793.36a12.24,12.24,0,0,1,.64-4.18,9.24,9.24,0,0,1,1.67-3,6.69,6.69,0,0,1,2.27-1.78,6,6,0,0,1,2.45-.56,5.73,5.73,0,0,1,2.37.46,5.42,5.42,0,0,0,2.31.47,3.72,3.72,0,0,0,2.47-1,4,4,0,0,0,1.14-3.18A3.4,3.4,0,0,0,2269.12,778Z"></path><path class="cls-2" d="M2302.53,806.81l-9.63-12,9.23-11.24a3.3,3.3,0,0,0,.73-1.27,4.51,4.51,0,0,0,.21-1.34,3.45,3.45,0,0,0-1.11-2.51,3.66,3.66,0,0,0-2.71-1.1,3.91,3.91,0,0,0-3.21,1.8l-7.62,10.1-8.23-10.23a4,4,0,0,0-3.28-1.67,4.09,4.09,0,0,0-2.84,1.13,3.88,3.88,0,0,0-.37,5.29l9.64,12-9.3,11.37a3.91,3.91,0,0,0-1,2.54,3.12,3.12,0,0,0,1.31,2.51,4.24,4.24,0,0,0,2.64,1,3.89,3.89,0,0,0,3.21-1.67l7.86-9.94,8,9.94a3.92,3.92,0,0,0,6.09.53,3.81,3.81,0,0,0,1.27-2.87A3.7,3.7,0,0,0,2302.53,806.81Z"></path><path class="cls-2" d="M2360.37,797a3.4,3.4,0,0,0,1.27-2.61,17.1,17.1,0,0,0-1.37-6.82,18.65,18.65,0,0,0-3.71-5.65,17.76,17.76,0,0,0-5.38-3.85,15.32,15.32,0,0,0-6.46-1.4,16.55,16.55,0,0,0-8.36,2.27,17.33,17.33,0,0,0-6.39,6.52,20.3,20.3,0,0,0-2.44,10.27,18.9,18.9,0,0,0,2.24,9.23,16.47,16.47,0,0,0,6.42,6.46,20.89,20.89,0,0,0,16.36,1.27,15.68,15.68,0,0,0,4.88-2.58,4.16,4.16,0,0,0,1.87-3.28,3.36,3.36,0,0,0-3.41-3.34,5.1,5.1,0,0,0-2.27.6c-.49.27-1,.59-1.64,1a8.81,8.81,0,0,1-2.38,1,15.38,15.38,0,0,1-3.94.4,10.28,10.28,0,0,1-8.93-5.11,10.16,10.16,0,0,1-1.22-3.31h22A4.25,4.25,0,0,0,2360.37,797ZM2338,786.41a7.14,7.14,0,0,1,3-1.81,12.52,12.52,0,0,1,3.74-.53,9,9,0,0,1,7,3.34,6.07,6.07,0,0,1,1.37,3.48v.47h-17.51a10.48,10.48,0,0,1,.39-1.54A8.65,8.65,0,0,1,2338,786.41Z"></path><path class="cls-2" d="M2366.26,807.61a3.68,3.68,0,0,1-.6-2.41,3.2,3.2,0,0,1,1.74-2.54,3.7,3.7,0,0,1,2.27-.57,3.81,3.81,0,0,1,2.34,1.24,15.67,15.67,0,0,0,4.08,3,12,12,0,0,0,5.35,1.07,20.29,20.29,0,0,0,2.21-.3,4.26,4.26,0,0,0,2.11-1.07,3.37,3.37,0,0,0,.9-2.58,2.93,2.93,0,0,0-1-2.34,8.45,8.45,0,0,0-2.64-1.47c-1.1-.4-2.31-.78-3.65-1.14s-2.8-.84-4.25-1.34a17.4,17.4,0,0,1-4-1.9,9.24,9.24,0,0,1-2.94-3.11,9.5,9.5,0,0,1-1.14-4.88,8.87,8.87,0,0,1,1.87-5.69,12.3,12.3,0,0,1,4.85-3.61,15.75,15.75,0,0,1,6.26-1.27,19.9,19.9,0,0,1,4.35.5,17,17,0,0,1,4.34,1.6,10.71,10.71,0,0,1,3.48,2.91,4.79,4.79,0,0,1,.87,2.41,2.85,2.85,0,0,1-1.27,2.54,3.24,3.24,0,0,1-2.34.71,3.55,3.55,0,0,1-2.21-.91,7.92,7.92,0,0,0-3-2.34,10.44,10.44,0,0,0-4.38-.87,10.91,10.91,0,0,0-2.18.24,4.26,4.26,0,0,0-2,1,3.64,3.64,0,0,0,.14,4.88,7.33,7.33,0,0,0,2.71,1.47c1.13.38,2.35.75,3.64,1.11s2.7.78,4.08,1.27a16.54,16.54,0,0,1,3.82,1.94,9.22,9.22,0,0,1,2.8,3.11,9.76,9.76,0,0,1,1.07,4.85,8.79,8.79,0,0,1-2,5.82,12.7,12.7,0,0,1-5,3.64,16,16,0,0,1-6.15,1.24,24.06,24.06,0,0,1-7.9-1.37A13.63,13.63,0,0,1,2366.26,807.61Z"></path><path class="cls-2" d="M2398.5,807.61a3.68,3.68,0,0,1-.6-2.41,3.2,3.2,0,0,1,1.74-2.54,3.7,3.7,0,0,1,2.27-.57,3.81,3.81,0,0,1,2.34,1.24,16,16,0,0,0,4.08,3,12,12,0,0,0,5.35,1.07,20.29,20.29,0,0,0,2.21-.3A4.26,4.26,0,0,0,2418,806a3.37,3.37,0,0,0,.9-2.58,2.93,2.93,0,0,0-1-2.34,8.45,8.45,0,0,0-2.64-1.47c-1.1-.4-2.31-.78-3.65-1.14s-2.8-.84-4.25-1.34a17.4,17.4,0,0,1-4-1.9,9.24,9.24,0,0,1-2.94-3.11,9.5,9.5,0,0,1-1.14-4.88,8.82,8.82,0,0,1,1.88-5.69A12.2,12.2,0,0,1,2406,778a15.75,15.75,0,0,1,6.26-1.27,19.9,19.9,0,0,1,4.35.5,17,17,0,0,1,4.34,1.6,10.71,10.71,0,0,1,3.48,2.91,4.79,4.79,0,0,1,.87,2.41,2.85,2.85,0,0,1-1.27,2.54,3.24,3.24,0,0,1-2.34.71,3.55,3.55,0,0,1-2.21-.91,7.92,7.92,0,0,0-3-2.34,10.44,10.44,0,0,0-4.38-.87,10.91,10.91,0,0,0-2.18.24,4.26,4.26,0,0,0-2,1,3.64,3.64,0,0,0,.14,4.88,7.33,7.33,0,0,0,2.71,1.47c1.13.38,2.35.75,3.64,1.11s2.7.78,4.08,1.27a16.34,16.34,0,0,1,3.82,1.94,9.25,9.25,0,0,1,2.81,3.11,9.87,9.87,0,0,1,1.07,4.85,8.8,8.8,0,0,1-2,5.82,12.7,12.7,0,0,1-5,3.64,15.93,15.93,0,0,1-6.15,1.24,24.11,24.11,0,0,1-7.9-1.37A13.63,13.63,0,0,1,2398.5,807.61Z"></path><path class="cls-2" d="M2309.34,768.48a4,4,0,0,1,1.14-2.91,4.12,4.12,0,0,1,5.75,0,4,4,0,0,1,1.14,2.91v30a22.87,22.87,0,0,0,.16,2.81,5.09,5.09,0,0,0,.84,2.31,4.31,4.31,0,0,0,2.27,1.51,6.5,6.5,0,0,1,2.44,1.33,3,3,0,0,1,1,2.35v.73a3.7,3.7,0,0,1-1,2.64,3.54,3.54,0,0,1-2.71,1.11,10.35,10.35,0,0,1-5.55-1.54,11.09,11.09,0,0,1-4-4.32,13.88,13.88,0,0,1-1.47-6.59Z"></path></g></g></svg> 